<svg width="138" height="38" viewBox="0 0 138 38" fill="none" xmlns="http://www.w3.org/2000/svg">
<path d="M105.106 27.8135C103.922 27.8135 102.839 27.8812 101.757 27.7796C100.978 27.7119 100.843 27.0348 100.911 26.2562C100.674 26.3916 100.505 26.4593 100.369 26.5947C97.0876 29.4046 92.5876 28.9645 89.9148 25.5452C87.005 21.8213 87.3434 15.7276 90.7944 12.5453C93.4335 10.1078 96.5801 9.56612 99.9973 10.5817C100.234 10.6494 100.437 10.7172 100.809 10.8526C100.809 8.27966 100.809 5.80831 100.809 3.20154C102.095 3.20154 103.245 3.16769 104.396 3.2354C104.633 3.2354 104.869 3.67551 105.072 3.94634C105.174 4.08176 105.106 4.31873 105.106 4.488C105.106 11.9698 105.106 19.4854 105.106 26.9671C105.106 27.2041 105.106 27.4411 105.106 27.8135ZM101.012 17.8604C100.978 17.8604 100.945 17.8604 100.877 17.8604C100.877 17.014 100.911 16.1677 100.843 15.3552C100.809 15.0505 100.64 14.6781 100.403 14.5088C98.7793 13.3916 95.565 13.6963 94.144 15.0843C92.317 16.8447 91.8095 20.027 93.0275 22.4307C93.8733 24.1572 95.2267 24.8343 97.2906 24.6989C98.8469 24.5635 100.2 23.514 100.572 21.8213C100.843 20.501 100.877 19.1807 101.012 17.8604Z" fill="#0B3A7A"/>
<path d="M121.956 27.8134C120.805 27.8134 119.756 27.9488 118.707 27.7457C118.268 27.678 117.929 26.9671 117.625 26.6624C116.542 27.1363 115.392 27.8473 114.106 28.1858C111.941 28.7275 109.877 28.389 108.084 26.8655C105.478 24.665 105.648 19.1129 109.843 17.3525C111.535 16.6416 113.328 16.5062 115.155 16.6077C116.001 16.6416 116.813 16.6077 117.659 16.6077C117.963 15.0504 116.813 13.764 114.952 13.527C113.294 13.3239 111.67 13.4931 110.147 14.3395C109.2 14.8473 108.896 14.7457 108.287 13.8317C107.881 13.2562 107.508 12.6806 107.102 12.0713C108.523 10.9879 110.08 10.4124 111.738 10.1077C113.632 9.80305 115.493 9.70149 117.354 10.277C120.298 11.1572 121.922 13.3239 121.922 16.4046C121.955 20.1624 121.956 23.9202 121.956 27.8134ZM117.726 19.9254C116.102 19.9254 114.512 19.9254 112.956 19.9254C112.651 19.9254 112.313 20.0947 112.042 20.2301C110.959 20.7718 110.418 21.889 110.587 23.04C110.756 24.0218 111.602 24.7327 112.753 24.902C116.035 25.4436 118.132 23.3785 117.726 19.9254Z" fill="#0B3A7A"/>
<path d="M65.2836 10.514C66.4001 10.514 67.4828 10.4463 68.5655 10.5479C68.87 10.5817 69.1745 10.988 69.3775 11.2927C69.5128 11.5296 69.5128 11.902 69.5467 12.3083C69.7497 12.1729 69.8512 12.0713 69.9865 11.9697C72.3549 9.80308 75.0954 9.59995 77.9037 10.751C80.2382 11.6989 81.2194 13.7979 81.3209 16.1338C81.4562 19.8916 81.3886 23.6494 81.3886 27.4072C81.3886 27.5088 81.3547 27.6103 81.3209 27.7796C80.1705 27.7796 79.054 27.8473 77.9375 27.7457C77.227 27.7119 77.1255 27.0687 77.1255 26.4593C77.1255 24.428 77.1255 22.3968 77.1255 20.3656C77.1255 19.3499 77.1255 18.3005 77.1255 17.2848C77.1255 15.8291 76.6518 14.5765 75.1969 14.001C73.6744 13.4255 72.2534 13.6963 71.0692 14.8135C70.0203 15.7952 69.5805 17.0479 69.5805 18.4697C69.5467 21.2119 69.5805 23.9202 69.5805 26.6624C69.5805 27.001 69.5805 27.3056 69.5805 27.7457C68.3625 27.7457 67.2121 27.7796 66.0618 27.7119C65.8249 27.7119 65.5204 27.3056 65.3512 27.0348C65.2497 26.8655 65.2497 26.5609 65.2497 26.3239C65.2497 21.3135 65.2497 16.3031 65.2497 11.2927C65.2159 11.0895 65.2497 10.8187 65.2836 10.514Z" fill="#0B3A7A"/>
<path d="M59.4303 10.514C60.8851 10.514 62.2047 10.514 63.5919 10.514C63.5919 16.2353 63.5919 21.9567 63.5919 27.8134C62.5092 27.8134 61.3926 27.8811 60.31 27.7796C60.0054 27.7457 59.7009 27.2379 59.4979 26.8993C59.3626 26.6962 59.4303 26.3915 59.3964 25.9514C59.0243 26.2561 58.7198 26.4931 58.4491 26.7301C55.9454 28.9306 50.5319 28.7613 48.6372 25.579C47.8591 24.2587 47.5207 22.8369 47.4869 21.3134C47.453 17.8603 47.4869 14.441 47.4869 10.9879C47.4869 10.8525 47.5207 10.7171 47.5545 10.4801C48.7049 10.4801 49.8553 10.4124 51.0056 10.514C51.6823 10.5478 51.7838 11.1572 51.7838 11.7327C51.7838 14.6442 51.7838 17.5895 51.7838 20.5009C51.7838 20.7379 51.7838 20.9749 51.7838 21.2457C51.9191 22.6337 52.4266 23.7848 53.8138 24.2926C55.2687 24.8004 56.6559 24.4957 57.8062 23.4462C58.6859 22.6337 59.2273 21.5843 59.2611 20.3655C59.2949 17.4541 59.2949 14.5087 59.2949 11.5973C59.3964 11.2588 59.4303 10.9202 59.4303 10.514Z" fill="#0B3A7A"/>
<path d="M122.937 25.8161C123.613 25.1052 124.121 24.4958 124.662 23.9541C125.373 23.1755 125.677 23.1416 126.557 23.7171C128.282 24.8343 130.177 25.0713 132.173 24.6651C132.918 24.4958 133.594 24.1911 133.662 23.3109C133.73 22.4645 133.188 21.9567 132.444 21.6859C131.429 21.3135 130.414 21.0088 129.365 20.7041C127.944 20.2979 126.557 19.8916 125.407 18.9437C123.106 17.014 123.038 13.764 125.339 11.8005C127.132 10.2771 129.264 9.80312 131.531 9.93853C133.662 10.0401 135.692 10.4463 137.553 11.8344C136.944 12.6469 136.403 13.4594 135.76 14.2041C135.388 14.6442 134.914 14.5765 134.44 14.3396C132.985 13.5948 131.463 13.3917 129.873 13.5609C129.568 13.5948 129.196 13.5948 129.027 13.764C128.621 14.1364 128.147 14.5765 128.012 15.0844C127.843 15.6937 128.35 16.1677 128.891 16.3708C130.11 16.8109 131.361 17.1156 132.579 17.5557C133.561 17.8942 134.609 18.1651 135.523 18.7067C138.703 20.5349 138.839 24.8682 135.827 26.9671C134.508 27.8812 133.019 28.3213 131.429 28.4567C129.061 28.626 126.794 28.3213 124.696 27.1703C124.121 26.764 123.58 26.2901 122.937 25.8161Z" fill="#0B3A7A"/>
<path d="M82.6742 10.4801C83.8923 10.4801 84.975 10.4124 86.0238 10.514C86.3283 10.5478 86.6667 10.9202 86.8697 11.2249C87.005 11.4619 86.9712 11.8004 86.9712 12.1051C86.9712 17.0478 86.9712 22.0244 86.9712 26.9671C86.9712 27.2379 86.9373 27.5087 86.9035 27.8134C85.7531 27.8134 84.6366 27.8473 83.5201 27.8134C82.9788 27.8134 82.6742 27.4749 82.6742 26.9332C82.6742 26.6962 82.6742 26.4592 82.6742 26.1884C82.6742 21.3134 82.6742 16.4384 82.6742 11.5634C82.6742 11.2588 82.6742 10.9541 82.6742 10.4801Z" fill="#0B3A7A"/>
<path d="M84.8397 3.16769C86.1592 3.16769 87.1742 4.21717 87.1404 5.46977C87.1065 6.75623 86.0577 7.77185 84.772 7.738C83.4863 7.738 82.5051 6.68852 82.5051 5.36821C82.539 4.0479 83.4863 3.13384 84.8397 3.16769Z" fill="#0B3A7A"/>
<path d="M18.9577 37.9959C8.84089 38.1829 -0.0619329 29.6424 0.000324583 18.92C0.062582 8.47817 8.49847 0 18.9888 0C29.5104 0 37.9462 8.47817 37.9774 19.0759C38.0085 29.7047 29.0746 38.2141 18.9577 37.9959ZM18.9577 28.8943C24.3119 28.8943 28.8255 24.4371 28.8567 19.0447C28.8878 13.6523 24.343 9.10156 18.9888 9.10156C13.6036 9.13273 9.12104 13.6212 9.12104 19.0135C9.12104 24.3747 13.6036 28.8943 18.9577 28.8943Z" fill="#0B3A7A"/>
</svg>
